<svg width="44" height="44" viewBox="0 0 44 44" fill="none" xmlns="http://www.w3.org/2000/svg">
<path d="M18.6657 5.28027C7.54953 5.28027 0.880005 14.1973 0.880005 18.6563C0.880005 23.1152 3.10289 26.4592 7.54953 26.4592C11.9962 26.4592 14.2199 27.5733 14.2199 30.9173C14.2199 35.3754 17.5542 38.7194 22.0009 38.7194C36.4522 38.7194 43.1209 30.9173 43.1209 23.1152C43.12 9.73923 32.0021 5.28027 18.6657 5.28027ZM15.8866 9.73923C16.2521 9.7397 16.6138 9.81213 16.9512 9.95239C17.2886 10.0927 17.5951 10.298 17.8532 10.5567C18.1112 10.8154 18.3158 11.1224 18.4552 11.4602C18.5946 11.798 18.6661 12.1599 18.6657 12.5253C18.6657 14.0653 17.4214 15.3123 15.8866 15.3123C14.3519 15.3123 13.1076 14.0644 13.1076 12.5253C13.1071 12.1599 13.1787 11.798 13.3181 11.4602C13.4575 11.1224 13.6621 10.8154 13.9201 10.5567C14.1782 10.298 14.4847 10.0927 14.8221 9.95239C15.1595 9.81213 15.5212 9.7397 15.8866 9.73923ZM24.7782 9.73923C25.1436 9.7397 25.5053 9.81213 25.8427 9.95239C26.1802 10.0927 26.4866 10.298 26.7447 10.5567C27.0028 10.8154 27.2073 11.1224 27.3467 11.4602C27.4862 11.798 27.5577 12.1599 27.5572 12.5253C27.5578 12.8908 27.4864 13.2528 27.347 13.5907C27.2076 13.9286 27.0031 14.2357 26.745 14.4945C26.4869 14.7533 26.1804 14.9587 25.8429 15.099C25.5055 15.2394 25.1437 15.3118 24.7782 15.3123C24.4128 15.3117 24.051 15.2392 23.7137 15.0988C23.3763 14.9584 23.0699 14.753 22.8119 14.4942C22.5539 14.2354 22.3494 13.9283 22.2101 13.5905C22.0708 13.2527 21.9994 12.8907 22 12.5253C21.9991 11.7875 22.2912 11.0795 22.8122 10.557C23.3332 10.0346 24.0403 9.7404 24.7782 9.73923ZM33.6714 14.1973C34.037 14.1977 34.3989 14.27 34.7365 14.4103C35.0741 14.5506 35.3807 14.756 35.6389 15.0148C35.897 15.2736 36.1017 15.5808 36.2411 15.9187C36.3805 16.2566 36.4519 16.6187 36.4514 16.9843C36.4519 17.3498 36.3805 17.7118 36.2411 18.0497C36.1016 18.3876 35.897 18.6947 35.6388 18.9534C35.3806 19.2122 35.074 19.4175 34.7364 19.5577C34.3989 19.6979 34.037 19.7701 33.6714 19.7704C33.306 19.77 32.9443 19.6976 32.6069 19.5574C32.2694 19.4172 31.963 19.2118 31.705 18.9531C31.4469 18.6943 31.2425 18.3873 31.1032 18.0495C30.9639 17.7116 30.8926 17.3497 30.8933 16.9843C30.8926 16.6188 30.9639 16.2568 31.1032 15.919C31.2424 15.5811 31.4469 15.274 31.7049 15.0152C31.9629 14.7563 32.2694 14.5509 32.6068 14.4106C32.9442 14.2702 33.306 14.1978 33.6714 14.1973ZM8.10569 16.4272C8.47101 16.4276 8.83269 16.4999 9.17006 16.6401C9.50742 16.7803 9.81386 16.9855 10.0719 17.2442C10.3299 17.5029 10.5344 17.8098 10.6737 18.1475C10.813 18.4852 10.8844 18.8471 10.8838 19.2124C10.8838 20.7524 9.63953 21.9994 8.10569 21.9994C6.57185 21.9994 5.32664 20.7516 5.32664 19.2124C5.32594 18.4746 5.61831 17.7667 6.13946 17.2444C6.66061 16.7221 7.36786 16.4282 8.10569 16.4272ZM22 27.5733C23.8418 27.5733 25.3343 29.0693 25.3343 30.9182C25.3343 32.7644 23.8418 34.2613 22 34.2613C20.1582 34.2613 18.6657 32.7644 18.6657 30.9182C18.6649 30.4796 18.7505 30.0451 18.9176 29.6396C19.0848 29.2341 19.3302 28.8656 19.6398 28.5549C19.9495 28.2443 20.3173 27.9977 20.7223 27.8293C21.1272 27.6609 21.5614 27.5739 22 27.5733Z" fill="#F54B8B"/>
</svg>
