<svg width="51" height="51" viewBox="0 0 51 51" fill="none" xmlns="http://www.w3.org/2000/svg">
<g clip-path="url(#clip0)">
<path d="M25.5 11.1562C28.5807 11.1562 31.0781 8.65884 31.0781 5.57812C31.0781 2.49741 28.5807 0 25.5 0C22.4193 0 19.9219 2.49741 19.9219 5.57812C19.9219 8.65884 22.4193 11.1562 25.5 11.1562Z" fill="#FAB85F"/>
<path d="M43.5293 12.7501H7.4707C6.75742 12.7501 6.07334 13.0334 5.56897 13.5378C5.0646 14.0421 4.78125 14.7262 4.78125 15.4395C4.78125 16.1528 5.0646 16.8369 5.56897 17.3412C6.07334 17.8456 6.75742 18.129 7.4707 18.129H17.6189C18.3072 18.129 19.113 18.4368 19.5693 19.6231C20.1022 21.0007 19.8412 23.6613 19.5125 25.7222L19.0822 28.1576C19.083 28.164 19.0823 28.1704 19.0802 28.1764C19.0782 28.1825 19.0747 28.188 19.0702 28.1925L15.6237 47.7966C15.4987 48.5082 15.6607 49.2404 16.0742 49.8329C16.4877 50.4254 17.119 50.83 17.8301 50.9582C18.1816 51.0204 18.542 51.0121 18.8903 50.9338C19.2387 50.8556 19.568 50.7089 19.8591 50.5024C20.1503 50.2958 20.3975 50.0335 20.5865 49.7306C20.7754 49.4277 20.9023 49.0902 20.9598 48.7379L23.3415 35.1114C23.3415 35.1114 24.1055 31.875 25.5 31.875C26.9174 31.875 27.6655 35.1114 27.6655 35.1114L30.0472 48.7499C30.1048 49.1053 30.2326 49.4457 30.4231 49.7513C30.6136 50.0569 30.863 50.3214 31.1568 50.5296C31.4506 50.7378 31.7829 50.8854 32.1343 50.9639C32.4858 51.0424 32.8493 51.0501 33.2038 50.9866C33.5582 50.9232 33.8965 50.7898 34.1989 50.5943C34.5013 50.3988 34.7617 50.145 34.965 49.8478C35.1683 49.5506 35.3105 49.2159 35.3831 48.8633C35.4558 48.5106 35.4575 48.147 35.3882 47.7936L31.9407 28.1895C31.9415 28.1832 31.9409 28.1769 31.939 28.1709C31.9371 28.1649 31.934 28.1594 31.9298 28.1546L31.4985 25.7192C31.1698 23.6583 30.9088 20.9977 31.4417 19.6201C31.8959 18.4368 32.7277 18.126 33.3622 18.126H43.5293C44.2426 18.126 44.9267 17.8426 45.431 17.3383C45.9354 16.8339 46.2188 16.1498 46.2188 15.4365C46.2188 14.7232 45.9354 14.0392 45.431 13.5348C44.9267 13.0304 44.2426 12.7471 43.5293 12.7471V12.7501Z" fill="#FAB85F"/>
</g>
<defs>
<clipPath id="clip0">
<rect width="51" height="51" fill="white"/>
</clipPath>
</defs>
</svg>
