<svg width="20" height="20" viewBox="0 0 20 20" fill="none" xmlns="http://www.w3.org/2000/svg">
<path d="M13.6167 7.76837C13.6967 7.69374 13.7613 7.60407 13.8067 7.50448C13.8521 7.40489 13.8774 7.29734 13.8813 7.18796C13.8851 7.07858 13.8673 6.96952 13.829 6.867C13.7907 6.76448 13.7326 6.67051 13.6579 6.59046C13.5833 6.51041 13.4936 6.44584 13.394 6.40044C13.2944 6.35505 13.1869 6.32971 13.0775 6.32588C12.9681 6.32205 12.8591 6.3398 12.7565 6.37812C12.654 6.41644 12.5601 6.47457 12.48 6.54921L10.0417 8.82254L7.76834 6.38337C7.61623 6.22758 7.40918 6.13751 7.1915 6.13243C6.97382 6.12735 6.7628 6.20768 6.6036 6.35621C6.44439 6.50475 6.34964 6.7097 6.33962 6.92721C6.32961 7.14471 6.40512 7.3575 6.55001 7.52004L8.82334 9.95837L6.38417 12.2317C6.3013 12.3056 6.23401 12.3953 6.18628 12.4955C6.13855 12.5958 6.11134 12.7045 6.10623 12.8154C6.10112 12.9264 6.11823 13.0372 6.15655 13.1414C6.19486 13.2456 6.25362 13.3411 6.32936 13.4223C6.4051 13.5034 6.49629 13.5687 6.59759 13.6141C6.6989 13.6596 6.80826 13.6843 6.91925 13.6869C7.03025 13.6895 7.14064 13.6699 7.24395 13.6292C7.34726 13.5885 7.4414 13.5276 7.52084 13.45L9.95917 11.1775L12.2325 13.6159C12.3059 13.7003 12.3956 13.7691 12.4961 13.8181C12.5966 13.8671 12.706 13.8954 12.8177 13.9012C12.9295 13.9071 13.0412 13.8904 13.1463 13.8521C13.2514 13.8139 13.3478 13.7549 13.4296 13.6786C13.5114 13.6023 13.577 13.5103 13.6226 13.4081C13.6681 13.306 13.6926 13.1957 13.6945 13.0838C13.6965 12.972 13.676 12.8609 13.6341 12.7571C13.5922 12.6534 13.5299 12.5592 13.4508 12.48L11.1783 10.0417L13.6167 7.76837Z" fill="#4399FF"/>
<path fill-rule="evenodd" clip-rule="evenodd" d="M0.833374 10C0.833374 4.93751 4.93754 0.833344 10 0.833344C15.0625 0.833344 19.1667 4.93751 19.1667 10C19.1667 15.0625 15.0625 19.1667 10 19.1667C4.93754 19.1667 0.833374 15.0625 0.833374 10ZM10 17.5C9.01513 17.5 8.03986 17.306 7.12991 16.9291C6.21997 16.5522 5.39318 15.9997 4.69674 15.3033C4.0003 14.6069 3.44785 13.7801 3.07094 12.8701C2.69403 11.9602 2.50004 10.9849 2.50004 10C2.50004 9.0151 2.69403 8.03983 3.07094 7.12988C3.44785 6.21994 4.0003 5.39315 4.69674 4.69671C5.39318 4.00027 6.21997 3.44782 7.12991 3.07091C8.03986 2.694 9.01513 2.50001 10 2.50001C11.9892 2.50001 13.8968 3.29019 15.3033 4.69671C16.7099 6.10323 17.5 8.01089 17.5 10C17.5 11.9891 16.7099 13.8968 15.3033 15.3033C13.8968 16.7098 11.9892 17.5 10 17.5Z" fill="#4399FF"/>
</svg>
