<svg width="42" height="42" viewBox="0 0 42 42" fill="none" xmlns="http://www.w3.org/2000/svg">
<path d="M35.7 23.1V29.4L29.4 23.1H16.8C15.6861 23.1 14.6178 22.6575 13.8302 21.8698C13.0425 21.0822 12.6 20.0139 12.6 18.9V4.2C12.6 1.89 14.49 0 16.8 0H37.8C38.9139 0 39.9822 0.442499 40.7698 1.23015C41.5575 2.0178 42 3.08609 42 4.2V18.9C42 20.0139 41.5575 21.0822 40.7698 21.8698C39.9822 22.6575 38.9139 23.1 37.8 23.1H35.7ZM29.4 27.3V31.5C29.4 32.6139 28.9575 33.6822 28.1698 34.4698C27.3822 35.2575 26.3139 35.7 25.2 35.7H12.6L6.3 42V35.7H4.2C3.08609 35.7 2.0178 35.2575 1.23015 34.4698C0.442499 33.6822 0 32.6139 0 31.5V16.8C0 14.49 1.89 12.6 4.2 12.6H8.4V18.9C8.4 21.1278 9.285 23.2644 10.8603 24.8397C12.4356 26.415 14.5722 27.3 16.8 27.3H29.4Z" fill="#6E61D5"/>
</svg>
