<svg width="62" height="62" viewBox="0 0 62 62" fill="none" xmlns="http://www.w3.org/2000/svg">
<circle cx="31" cy="31" r="30.5" fill="white" stroke="#DCDCDC"/>
<path d="M46.5252 27.8994H45.2498V27.8337H30.9998V34.167H39.948C38.6426 37.8538 35.1347 40.5003 30.9998 40.5003C25.7535 40.5003 21.4998 36.2467 21.4998 31.0003C21.4998 25.754 25.7535 21.5003 30.9998 21.5003C33.4215 21.5003 35.6248 22.4139 37.3023 23.9062L41.7808 19.4277C38.9529 16.7923 35.1703 15.167 30.9998 15.167C22.2559 15.167 15.1665 22.2564 15.1665 31.0003C15.1665 39.7443 22.2559 46.8337 30.9998 46.8337C39.7438 46.8337 46.8332 39.7443 46.8332 31.0003C46.8332 29.9387 46.7239 28.9024 46.5252 27.8994Z" fill="#FFC107"/>
<path d="M16.9922 23.6307L22.1942 27.4457C23.6018 23.9608 27.0107 21.5003 30.9999 21.5003C33.4216 21.5003 35.6249 22.4139 37.3024 23.9062L41.7809 19.4277C38.953 16.7923 35.1704 15.167 30.9999 15.167C24.9184 15.167 19.6443 18.6005 16.9922 23.6307Z" fill="#FF3D00"/>
<path d="M30.9999 46.8339C35.0897 46.8339 38.8058 45.2688 41.6154 42.7235L36.715 38.5768C35.0719 39.8264 33.0642 40.5022 30.9999 40.5005C26.8817 40.5005 23.3849 37.8746 22.0675 34.21L16.9043 38.1881C19.5247 43.3157 24.8463 46.8339 30.9999 46.8339Z" fill="#4CAF50"/>
<path d="M46.5254 27.8987H45.25V27.833H31V34.1663H39.9482C39.3237 35.921 38.1989 37.4543 36.7127 38.5767L36.715 38.5751L41.6155 42.7219C41.2687 43.037 46.8333 38.9163 46.8333 30.9997C46.8333 29.938 46.7241 28.9018 46.5254 27.8987Z" fill="#1976D2"/>
</svg>
