<svg width="55" height="55" viewBox="0 0 55 55" fill="none" xmlns="http://www.w3.org/2000/svg">
<path d="M29.7916 36.6663H33.8708C39.8978 36.6663 45.2833 32.2205 45.7874 26.2163C45.9984 23.7986 45.4378 21.3762 44.1861 19.2969C42.9345 17.2177 41.0561 15.5885 38.8208 14.6434C38.1103 8.98301 33.3437 4.58301 27.4999 4.58301C21.6562 4.58301 16.8895 8.98301 16.1791 14.6434C13.9437 15.5885 12.0654 17.2177 10.8137 19.2969C9.56205 21.3762 9.00145 23.7986 9.21242 26.2163C9.71658 32.2205 15.102 36.6663 21.1291 36.6663H25.2083V45.833H13.7499C12.4895 45.833 11.4582 46.8643 11.4582 48.1247C11.4582 49.3851 12.4895 50.4163 13.7499 50.4163H41.2499C42.5103 50.4163 43.5416 49.3851 43.5416 48.1247C43.5416 46.8643 42.5103 45.833 41.2499 45.833H29.7916V36.6663Z" fill="#7FB141"/>
</svg>
