<svg width="28" height="28" viewBox="0 0 28 28" fill="none" xmlns="http://www.w3.org/2000/svg">
<path d="M10.2083 9.62492C10.2083 9.93434 10.0854 10.2311 9.86662 10.4499C9.64783 10.6687 9.35109 10.7916 9.04167 10.7916C8.73225 10.7916 8.4355 10.6687 8.21671 10.4499C7.99792 10.2311 7.875 9.93434 7.875 9.62492C7.875 9.3155 7.99792 9.01875 8.21671 8.79996C8.4355 8.58117 8.73225 8.45825 9.04167 8.45825C9.35109 8.45825 9.64783 8.58117 9.86662 8.79996C10.0854 9.01875 10.2083 9.3155 10.2083 9.62492Z" fill="black"/>
<path d="M12.25 9.625C12.25 9.39294 12.3422 9.17038 12.5063 9.00628C12.6704 8.84219 12.8929 8.75 13.125 8.75H19.5417C19.7737 8.75 19.9963 8.84219 20.1604 9.00628C20.3245 9.17038 20.4167 9.39294 20.4167 9.625C20.4167 9.85706 20.3245 10.0796 20.1604 10.2437C19.9963 10.4078 19.7737 10.5 19.5417 10.5H13.125C12.8929 10.5 12.6704 10.4078 12.5063 10.2437C12.3422 10.0796 12.25 9.85706 12.25 9.625Z" fill="black"/>
<path d="M12.25 14C12.25 13.7679 12.3422 13.5454 12.5063 13.3813C12.6704 13.2172 12.8929 13.125 13.125 13.125H19.5417C19.7737 13.125 19.9963 13.2172 20.1604 13.3813C20.3245 13.5454 20.4167 13.7679 20.4167 14C20.4167 14.2321 20.3245 14.4546 20.1604 14.6187C19.9963 14.7828 19.7737 14.875 19.5417 14.875H13.125C12.8929 14.875 12.6704 14.7828 12.5063 14.6187C12.3422 14.4546 12.25 14.2321 12.25 14Z" fill="black"/>
<path d="M13.125 17.5C12.8929 17.5 12.6704 17.5922 12.5063 17.7563C12.3422 17.9204 12.25 18.1429 12.25 18.375C12.25 18.6071 12.3422 18.8296 12.5063 18.9937C12.6704 19.1578 12.8929 19.25 13.125 19.25H19.5417C19.7737 19.25 19.9963 19.1578 20.1604 18.9937C20.3245 18.8296 20.4167 18.6071 20.4167 18.375C20.4167 18.1429 20.3245 17.9204 20.1604 17.7563C19.9963 17.5922 19.7737 17.5 19.5417 17.5H13.125Z" fill="black"/>
<path d="M9.04167 15.1666C9.35109 15.1666 9.64783 15.0437 9.86662 14.8249C10.0854 14.6061 10.2083 14.3093 10.2083 13.9999C10.2083 13.6905 10.0854 13.3938 9.86662 13.175C9.64783 12.9562 9.35109 12.8333 9.04167 12.8333C8.73225 12.8333 8.4355 12.9562 8.21671 13.175C7.99792 13.3938 7.875 13.6905 7.875 13.9999C7.875 14.3093 7.99792 14.6061 8.21671 14.8249C8.4355 15.0437 8.73225 15.1666 9.04167 15.1666Z" fill="black"/>
<path d="M10.2083 18.3749C10.2083 18.6843 10.0854 18.9811 9.86662 19.1999C9.64783 19.4187 9.35109 19.5416 9.04167 19.5416C8.73225 19.5416 8.4355 19.4187 8.21671 19.1999C7.99792 18.9811 7.875 18.6843 7.875 18.3749C7.875 18.0655 7.99792 17.7688 8.21671 17.55C8.4355 17.3312 8.73225 17.2083 9.04167 17.2083C9.35109 17.2083 9.64783 17.3312 9.86662 17.55C10.0854 17.7688 10.2083 18.0655 10.2083 18.3749Z" fill="black"/>
<path d="M6.125 3.5C5.42881 3.5 4.76113 3.77656 4.26884 4.26884C3.77656 4.76113 3.5 5.42881 3.5 6.125V21.875C3.5 22.5712 3.77656 23.2389 4.26884 23.7312C4.76113 24.2234 5.42881 24.5 6.125 24.5H21.875C22.5712 24.5 23.2389 24.2234 23.7312 23.7312C24.2234 23.2389 24.5 22.5712 24.5 21.875V6.125C24.5 5.42881 24.2234 4.76113 23.7312 4.26884C23.2389 3.77656 22.5712 3.5 21.875 3.5H6.125ZM5.25 6.125C5.25 5.89294 5.34219 5.67038 5.50628 5.50628C5.67038 5.34219 5.89294 5.25 6.125 5.25H21.875C22.1071 5.25 22.3296 5.34219 22.4937 5.50628C22.6578 5.67038 22.75 5.89294 22.75 6.125V21.875C22.75 22.1071 22.6578 22.3296 22.4937 22.4937C22.3296 22.6578 22.1071 22.75 21.875 22.75H6.125C5.89294 22.75 5.67038 22.6578 5.50628 22.4937C5.34219 22.3296 5.25 22.1071 5.25 21.875V6.125Z" fill="black"/>
<rect x="4.5" y="4.5" width="19" height="19" rx="2" stroke="black" stroke-width="2"/>
</svg>
