<svg width="39" height="39" viewBox="0 0 39 39" fill="none" xmlns="http://www.w3.org/2000/svg">
<path d="M33.4302 27.8368C32.6372 27.8394 31.854 28.0129 31.1337 28.3457C30.4135 28.6784 29.773 29.1625 29.2557 29.7653L11.0393 20.631C11.2081 19.8625 11.2081 19.0664 11.0393 18.2979L29.2557 9.16367C30.1432 10.1619 31.3629 10.8017 32.6868 10.9636C34.0106 11.1255 35.3479 10.7983 36.4487 10.0433C37.5495 9.28822 38.3383 8.15697 38.6677 6.86105C38.9971 5.56512 38.8446 4.19325 38.2385 3.00193C37.6325 1.81061 36.6146 0.881403 35.375 0.388055C34.1354 -0.105293 32.7591 -0.129008 31.5033 0.321344C30.2475 0.771696 29.1983 1.66528 28.5519 2.83502C27.9054 4.00476 27.7059 5.37057 27.9908 6.67708L9.77438 15.8113C9.03155 14.9508 8.04414 14.3386 6.94454 14.0568C5.84493 13.7749 4.68568 13.8369 3.62218 14.2344C2.55868 14.6318 1.64177 15.3458 0.994365 16.2806C0.346959 17.2154 0 18.3264 0 19.4645C0 20.6026 0.346959 21.7135 0.994365 22.6483C1.64177 23.5831 2.55868 24.2971 3.62218 24.6946C4.68568 25.0921 5.84493 25.154 6.94454 24.8722C8.04414 24.5903 9.03155 23.9781 9.77438 23.1176L27.9908 32.2519C27.7502 33.3806 27.8645 34.5563 28.3179 35.6171C28.7713 36.678 29.5415 37.5718 30.5225 38.1755C31.5035 38.7793 32.6469 39.0632 33.7955 38.9882C34.944 38.9132 36.0412 38.4831 36.9358 37.7569C37.8304 37.0308 38.4786 36.0443 38.791 34.9335C39.1034 33.8226 39.0648 32.642 38.6803 31.5541C38.2959 30.4662 37.5846 29.5246 36.6443 28.8588C35.7041 28.1931 34.5812 27.8361 33.4302 27.8368Z" fill="#4399FF"/>
</svg>
