<svg width="51" height="51" viewBox="0 0 51 51" fill="none" xmlns="http://www.w3.org/2000/svg">
<path d="M39.4302 33.8368C38.6372 33.8394 37.854 34.0129 37.1337 34.3457C36.4135 34.6784 35.773 35.1625 35.2557 35.7653L17.0393 26.631C17.2081 25.8625 17.2081 25.0664 17.0393 24.2979L35.2557 15.1637C36.1432 16.1619 37.3629 16.8017 38.6868 16.9636C40.0106 17.1255 41.3479 16.7983 42.4487 16.0433C43.5495 15.2882 44.3383 14.157 44.6677 12.861C44.9971 11.5651 44.8446 10.1932 44.2385 9.00193C43.6325 7.81061 42.6146 6.8814 41.375 6.38806C40.1354 5.89471 38.7591 5.87099 37.5033 6.32134C36.2475 6.7717 35.1983 7.66528 34.5519 8.83502C33.9054 10.0048 33.7059 11.3706 33.9908 12.6771L15.7744 21.8113C15.0315 20.9508 14.0441 20.3386 12.9445 20.0568C11.8449 19.7749 10.6857 19.8369 9.62218 20.2344C8.55868 20.6318 7.64177 21.3458 6.99436 22.2806C6.34696 23.2154 6 24.3264 6 25.4645C6 26.6026 6.34696 27.7135 6.99436 28.6483C7.64177 29.5831 8.55868 30.2971 9.62218 30.6946C10.6857 31.0921 11.8449 31.154 12.9445 30.8722C14.0441 30.5903 15.0315 29.9781 15.7744 29.1176L33.9908 38.2519C33.7502 39.3806 33.8645 40.5563 34.3179 41.6171C34.7713 42.678 35.5415 43.5718 36.5225 44.1755C37.5035 44.7793 38.6469 45.0632 39.7955 44.9882C40.944 44.9132 42.0412 44.4831 42.9358 43.7569C43.8304 43.0308 44.4786 42.0443 44.791 40.9335C45.1034 39.8226 45.0648 38.642 44.6803 37.5541C44.2959 36.4662 43.5846 35.5246 42.6443 34.8588C41.7041 34.1931 40.5812 33.8361 39.4302 33.8368V33.8368Z" fill="#4399FF"/>
</svg>
